<?xml version="1.0" standalone="no"?>
<!DOCTYPE svg PUBLIC "-//W3C//DTD SVG 20010904//EN"
 "http://www.w3.org/TR/2001/REC-SVG-20010904/DTD/svg10.dtd">
<svg version="1.0" xmlns="http://www.w3.org/2000/svg"
 width="300.000000pt" height="145.000000pt" viewBox="0 0 300.000000 145.000000"
 preserveAspectRatio="xMidYMid meet">
<metadata>
Created by potrace 1.10, written by Peter Selinger 2001-2011
</metadata>
<g transform="translate(0.000000,145.000000) scale(0.100000,-0.100000)"
fill="#ff6060" stroke="none">
<path d="M14 1363 c36 -429 339 -902 731 -1143 144 -89 323 -155 497 -184 127
-22 375 -22 495 -2 335 59 628 222 843 471 226 260 355 543 398 873 l9 62
-1490 0 -1490 0 7 -77z m2484 48 l452 -1 0 -26 c0 -46 -40 -226 -71 -319 -72
-216 -200 -425 -368 -598 -240 -249 -588 -404 -954 -423 -110 -5 -151 -3 -325
22 -33 4 -109 25 -222 59 -242 74 -518 288 -700 543 -75 106 -169 291 -208
412 -33 100 -36 116 -56 247 l-12 83 985 2 c542 2 995 2 1006 1 11 -1 224 -2
473 -2z"/>
<path d="M2155 1224 c-32 -11 -47 -11 -72 -2 -31 11 -35 10 -66 -20 l-33 -32
-23 31 c-17 22 -29 29 -48 27 -46 -5 -51 -30 -15 -88 18 -28 32 -57 32 -64 0
-7 -11 -27 -25 -46 -30 -41 -31 -55 -4 -73 32 -23 52 -11 95 58 21 35 42 64
45 65 3 0 12 -18 19 -41 17 -51 63 -87 122 -95 37 -5 52 -2 86 19 22 15 43 31
47 37 4 6 18 -3 34 -20 34 -38 82 -47 133 -26 54 23 68 58 68 164 0 90 -8 112
-40 112 -34 0 -48 -32 -49 -110 -1 -71 -11 -94 -36 -87 -5 2 -11 39 -13 83 -2
56 -8 84 -19 97 -22 23 -54 18 -68 -10 -10 -20 -13 -21 -27 -7 -8 8 -35 21
-59 28 -38 12 -51 12 -84 0z m-199 -59 c14 -25 28 -45 29 -45 2 0 18 20 35 45
20 29 38 45 52 45 20 0 20 -1 2 -27 -10 -16 -44 -68 -75 -118 -40 -64 -63 -91
-79 -93 l-23 -4 24 39 c12 21 27 45 33 54 7 13 1 32 -27 79 -20 34 -37 63 -37
66 0 2 9 4 20 4 12 0 29 -16 46 -45z m294 30 c43 -22 60 -53 60 -108 0 -42 -5
-54 -34 -83 -29 -29 -41 -34 -81 -34 -40 0 -52 5 -81 34 -29 29 -34 41 -34 81
0 57 12 80 53 105 38 24 78 25 117 5z m130 -75 c0 -86 1 -90 26 -107 24 -15
29 -15 53 -2 25 14 26 19 29 107 3 85 4 92 23 92 20 0 21 -5 17 -96 -3 -91 -5
-97 -31 -120 -37 -32 -87 -32 -124 0 -26 23 -28 29 -31 120 -4 92 -3 96 17 96
20 0 21 -5 21 -90z"/>
<path d="M2147 1158 c-31 -25 -39 -67 -20 -106 22 -44 60 -59 100 -40 55 26
66 95 23 138 -23 23 -77 27 -103 8z m84 -28 c34 -19 22 -76 -19 -91 -52 -20
-96 46 -56 85 18 18 47 20 75 6z"/>
<path d="M440 1205 c-12 -22 -11 -27 5 -45 10 -11 24 -20 32 -20 10 0 13 -20
13 -83 0 -71 3 -87 20 -102 17 -15 24 -16 45 -7 24 11 25 16 25 97 0 68 3 87
15 92 25 9 29 -3 33 -85 4 -84 13 -102 46 -102 31 0 46 19 46 57 0 18 5 33 11
33 6 0 9 -13 7 -29 -4 -39 26 -73 55 -62 12 4 38 6 57 4 32 -4 37 -2 52 30 19
41 43 43 58 7 14 -34 55 -59 72 -42 7 7 17 8 29 2 26 -15 48 -2 57 34 l8 31
19 -28 c24 -38 52 -52 71 -36 11 9 20 9 41 0 21 -10 29 -9 44 5 11 9 19 25 19
36 0 26 12 23 45 -12 32 -33 84 -41 105 -15 10 12 3 24 -39 68 -28 30 -51 58
-51 64 0 6 16 27 35 47 37 40 42 55 23 74 -19 19 -46 14 -82 -13 l-33 -25 -11
25 c-12 25 -57 36 -64 15 -2 -7 -15 -6 -35 2 -29 11 -34 10 -48 -7 -8 -11 -15
-29 -15 -40 -1 -20 -1 -20 -12 0 -6 11 -20 29 -30 40 -17 18 -21 18 -46 4 -24
-13 -27 -21 -32 -84 l-5 -70 -23 62 c-52 141 -81 136 -151 -27 l-19 -45 -1 71
c-1 58 -5 74 -21 89 -17 15 -24 16 -45 7 -20 -9 -25 -19 -25 -46 0 -50 -18
-54 -22 -5 -4 51 -27 71 -59 51 -15 -10 -24 -11 -32 -3 -6 6 -47 11 -92 11
-77 0 -82 -2 -95 -25z m944 -56 l-51 -50 66 -64 66 -65 -31 0 c-25 0 -41 11
-78 50 -26 28 -51 48 -55 45 -5 -2 -6 -25 -3 -50 4 -41 3 -45 -17 -45 -20 0
-21 4 -21 115 0 110 1 115 21 115 20 0 21 -4 14 -47 l-7 -48 49 47 c43 41 79
61 93 51 2 -2 -19 -26 -46 -54z m-764 36 c0 -10 -10 -15 -30 -15 l-30 0 0
-100 c0 -93 -1 -100 -20 -100 -19 0 -20 7 -20 100 l0 100 -35 0 c-24 0 -35 5
-35 15 0 12 16 15 85 15 69 0 85 -3 85 -15z m77 -35 l-6 -50 39 0 40 0 0 50
c0 41 3 50 18 50 15 0 17 -12 17 -115 0 -103 -2 -115 -17 -115 -15 0 -18 9
-18 50 l0 50 -39 0 -38 0 5 -50 c4 -46 3 -50 -17 -50 -20 0 -21 4 -21 115 0
111 1 115 21 115 20 0 21 -4 16 -50z m291 -58 c23 -60 42 -112 42 -115 0 -4
-9 -7 -19 -7 -13 0 -23 11 -31 34 -9 29 -16 35 -46 38 -20 2 -38 0 -40 -6 -19
-57 -25 -66 -44 -66 -20 0 -20 0 1 53 12 28 27 68 34 87 29 79 35 90 48 90 7
0 31 -46 55 -108z m147 35 l40 -72 3 73 c2 55 6 72 17 72 12 0 15 -21 15 -115
0 -141 -9 -146 -69 -40 -24 41 -45 75 -46 75 -2 0 -1 -34 2 -75 6 -72 5 -75
-16 -75 -20 0 -21 4 -21 115 0 103 2 115 18 115 11 0 31 -26 57 -73z"/>
<path d="M922 1110 c-7 -19 -6 -26 5 -28 21 -5 25 2 14 29 l-9 24 -10 -25z"/>
<path d="M1615 865 c-22 -8 -50 -27 -62 -42 l-23 -28 -15 22 c-35 50 -130 69
-184 37 -43 -25 -71 -74 -71 -123 0 -46 35 -121 56 -121 6 0 17 -6 23 -13 13
-17 81 -20 117 -6 15 5 38 21 51 35 l24 26 25 -25 c42 -42 80 -56 127 -45 23
5 52 19 64 30 25 23 25 23 42 -9 27 -52 81 -13 81 57 0 33 3 41 12 32 7 -7 17
-8 30 -1 16 9 18 5 18 -34 0 -31 6 -49 20 -62 18 -17 21 -17 45 -1 23 15 26
15 31 1 7 -18 27 -19 55 -2 17 10 23 10 26 0 8 -23 43 -14 61 17 l19 30 22
-30 c28 -39 54 -38 73 1 l15 30 30 -25 c61 -51 147 -43 203 20 31 36 40 80 19
101 -8 8 -8 17 0 30 8 16 5 26 -19 51 -61 67 -149 71 -214 11 -19 -19 -20 -19
-32 11 -8 18 -20 30 -32 30 -22 0 -52 -30 -52 -51 0 -8 -12 1 -26 19 -25 31
-57 42 -69 22 -3 -6 -15 -5 -31 2 -20 9 -30 9 -46 -1 -15 -9 -23 -10 -31 -2
-18 18 -39 13 -72 -19 l-31 -30 -28 30 c-31 36 -66 37 -81 3 l-9 -21 -41 23
c-57 33 -75 36 -120 20z m-178 -26 c30 -11 73 -47 73 -61 0 -15 -31 -8 -57 12
-35 27 -78 26 -108 -5 -35 -34 -33 -78 5 -117 26 -25 36 -29 63 -24 18 3 41
17 52 31 21 25 55 34 55 14 0 -6 -15 -26 -34 -45 -28 -28 -42 -34 -75 -34 -77
0 -131 51 -131 122 0 35 37 88 73 103 39 17 48 18 84 4z m268 -3 c38 -16 75
-68 75 -104 0 -103 -125 -162 -201 -94 -43 39 -52 113 -18 156 21 27 69 55 97
56 7 0 28 -6 47 -14z m752 3 c30 -11 73 -47 73 -61 0 -15 -31 -8 -57 12 -56
44 -133 7 -133 -65 0 -63 62 -100 119 -71 41 22 39 36 -4 36 -28 0 -35 4 -35
20 0 18 7 20 60 20 67 0 72 -7 45 -60 -19 -37 -62 -60 -112 -60 -126 0 -156
175 -39 226 38 16 47 17 83 3z m-589 -39 l29 -40 28 40 c16 22 36 40 46 40 17
0 19 -9 19 -115 0 -110 -1 -115 -21 -115 -20 0 -21 4 -18 85 2 47 3 85 3 85
-1 0 -14 -18 -29 -40 l-28 -40 -26 36 -26 37 -3 -82 c-3 -73 -5 -81 -22 -81
-19 0 -20 7 -20 115 0 107 1 115 19 115 11 0 32 -18 49 -40z m202 -75 c0 -108
-1 -115 -20 -115 -19 0 -20 7 -20 115 0 108 1 115 20 115 19 0 20 -7 20 -115z
m118 43 l41 -73 1 73 c0 65 2 72 20 72 19 0 20 -7 20 -115 0 -103 -2 -115 -17
-115 -12 0 -34 27 -61 75 -24 41 -44 75 -45 75 -1 0 -1 -34 1 -75 3 -70 2 -75
-17 -75 -20 0 -21 5 -21 115 0 104 2 115 18 115 12 0 32 -25 60 -72z m-748 -3
c7 -8 27 -19 44 -24 28 -8 29 -9 11 -16 -11 -5 -33 -19 -48 -32 -34 -27 -54
-29 -79 -6 -20 18 -24 63 -6 81 17 17 63 15 78 -3z m1018 -2 c2 -8 -5 -13 -16
-13 -27 0 -45 -25 -40 -55 6 -27 -1 -32 -20 -13 -18 18 -15 75 6 87 22 14 64
10 70 -6z"/>
<path d="M1606 789 c-48 -38 -29 -129 30 -143 81 -21 138 81 79 139 -30 31
-73 32 -109 4z m92 -21 c17 -17 15 -64 -4 -82 -18 -19 -55 -21 -72 -4 -7 7
-12 26 -12 43 0 17 5 36 12 43 15 15 61 15 76 0z"/>
<path d="M460 851 c-5 -11 -10 -69 -10 -130 0 -111 9 -141 44 -141 22 0 46 35
46 68 0 31 1 32 47 32 25 0 44 -3 40 -6 -9 -10 52 -71 84 -84 39 -16 100 -7
139 20 16 12 30 17 30 11 0 -6 11 -18 24 -26 21 -14 28 -14 46 -3 12 7 24 25
27 41 3 15 10 27 15 27 5 0 6 -4 3 -10 -9 -14 23 -70 41 -70 8 0 25 8 38 17
21 16 22 21 13 63 -5 25 -9 69 -8 98 2 46 -1 56 -28 82 -26 26 -37 30 -85 30
-48 0 -58 -3 -71 -24 l-16 -25 -37 26 c-31 21 -46 24 -90 21 -37 -3 -60 -11
-74 -26 l-21 -21 -19 25 c-18 22 -27 24 -93 24 -63 0 -76 -3 -85 -19z m375
-27 c29 -19 45 -56 45 -105 0 -33 -7 -48 -34 -75 -27 -27 -42 -34 -75 -34 -49
0 -86 16 -105 45 -74 113 56 243 169 169z m-215 1 c0 -12 -13 -15 -55 -15
l-55 0 0 -35 0 -35 55 0 c47 0 55 -3 55 -18 0 -16 -7 -18 -55 -14 l-55 4 0
-51 c0 -44 -3 -51 -20 -51 -19 0 -20 7 -20 115 l0 115 75 0 c60 0 75 -3 75
-15z m421 -6 c16 -16 20 -28 15 -52 -8 -37 -8 -46 0 -109 6 -44 4 -48 -15 -48
-18 0 -21 6 -21 39 0 41 -11 51 -53 51 -20 0 -22 -4 -19 -45 4 -40 2 -45 -17
-45 -20 0 -21 5 -21 115 l0 115 55 0 c43 0 60 -5 76 -21z m-438 -46 c-13 -2
-33 -2 -45 0 -13 2 -3 4 22 4 25 0 35 -2 23 -4z"/>
<path d="M722 803 c-17 -6 -42 -57 -42 -83 0 -29 53 -80 83 -80 13 0 36 9 51
21 21 16 26 29 26 64 0 35 -5 48 -26 64 -25 20 -63 26 -92 14z m80 -40 c34
-31 11 -93 -35 -93 -45 0 -76 67 -45 98 17 17 58 15 80 -5z"/>
<path d="M950 770 c0 -43 13 -50 51 -30 37 20 17 70 -28 70 -20 0 -23 -5 -23
-40z"/>
</g>
</svg>
